Gamer-800.ufo
<glyph name="H" format="1">
  <advance width="714"/>
  <unicode hex="0048"/>
  <outline>
    <contour>
      <point x="54" y="0" type="line"/>
      <point x="191" y="0" type="line"/>
      <point x="191" y="680" type="line"/>
      <point x="54" y="680" type="line"/>
    </contour>
    <contour>
      <point x="162" y="285" type="line"/>
      <point x="572" y="285" type="line"/>
      <point x="572" y="412" type="line"/>
      <point x="162" y="412" type="line"/>
    </contour>
    <contour>
      <point x="506" y="0" type="line"/>
      <point x="644" y="0" type="line"/>
      <point x="644" y="680" type="line"/>
      <point x="506" y="680" type="line"/>
    </contour>
  </outline>
</glyph>
<glyph name="a" format="1">
  <advance width="549"/>
  <unicode hex="0061"/>
  <outline>
    <contour>
      <point x="369" y="0" type="line"/>
      <point x="348" y="131" type="line"/>
      <point x="379" y="116" type="line"/>
      <point x="341" y="116" type="line"/>
      <point x="341" y="301" type="line" smooth="yes"/>
      <point x="341" y="325"/>
      <point x="338" y="339"/>
      <point x="325" y="352" type="curve" smooth="yes"/>
      <point x="311" y="366"/>
      <point x="274" y="375"/>
      <point x="227" y="375" type="curve" smooth="yes"/>
      <point x="173" y="375"/>
      <point x="115" y="367"/>
      <point x="63" y="353" type="curve"/>
      <point x="78" y="489" type="line"/>
      <point x="122" y="505"/>
      <point x="188" y="513"/>
      <point x="256" y="513" type="curve" smooth="yes"/>
      <point x="348" y="513"/>
      <point x="407" y="498"/>
      <point x="438" y="467" type="curve" smooth="yes"/>
      <point x="466" y="439"/>
      <point x="477" y="394"/>
      <point x="477" y="320" type="curve" smooth="yes"/>
      <point x="477" y="100" type="line"/>
      <point x="438" y="118" type="line"/>
      <point x="467" y="129"/>
      <point x="495" y="133"/>
      <point x="544" y="133" type="curve"/>
      <point x="544" y="0" type="line"/>
    </contour>
    <contour>
      <point x="201" y="-13" type="curve" smooth="yes" name="SP"/>
      <point x="138" y="-13"/>
      <point x="99" y="-3"/>
      <point x="74" y="23" type="curve" smooth="yes"/>
      <point x="50" y="46"/>
      <point x="36" y="91"/>
      <point x="36" y="142" type="curve" smooth="yes"/>
      <point x="36" y="187"/>
      <point x="51" y="229"/>
      <point x="77" y="254" type="curve" smooth="yes"/>
      <point x="103" y="280"/>
      <point x="144" y="289"/>
      <point x="211" y="289" type="curve" smooth="yes" name="SP"/>
      <point x="270" y="289"/>
      <point x="298" y="282"/>
      <point x="315" y="263" type="curve" smooth="yes"/>
      <point x="330" y="245"/>
      <point x="337" y="222"/>
      <point x="341" y="177" type="curve"/>
      <point x="347" y="177" type="line"/>
      <point x="344" y="166" type="line"/>
      <point x="327" y="182"/>
      <point x="299" y="186"/>
      <point x="247" y="186" type="curve" smooth="yes" name="SP"/>
      <point x="190" y="186"/>
      <point x="174" y="175"/>
      <point x="174" y="144" type="curve" smooth="yes"/>
      <point x="174" y="112"/>
      <point x="192" y="102"/>
      <point x="244" y="102" type="curve" smooth="yes" name="SP"/>
      <point x="297" y="102"/>
      <point x="329" y="112"/>
      <point x="344" y="130" type="curve"/>
      <point x="346" y="122" type="line"/>
      <point x="344" y="63"/>
      <point x="336" y="33"/>
      <point x="319" y="16" type="curve" smooth="yes"/>
      <point x="301" y="-3"/>
      <point x="265" y="-13"/>
    </contour>
  </outline>
</glyph>
<glyph name="b" format="1">
  <advance width="588"/>
  <unicode hex="0062"/>
  <outline>
    <contour>
      <point x="64" y="0" type="line"/>
      <point x="64" y="598" type="line"/>
      <point x="92" y="574" type="line"/>
      <point x="15" y="574" type="line"/>
      <point x="15" y="698" type="line"/>
      <point x="201" y="698" type="line"/>
      <point x="201" y="137" type="line"/>
      <point x="198" y="0" type="line"/>
    </contour>
    <contour>
      <point x="348" y="-13" type="curve" smooth="yes" name="SP"/>
      <point x="250" y="-13"/>
      <point x="208" y="26"/>
      <point x="197" y="138" type="curve"/>
      <point x="197" y="147" type="line"/>
      <point x="218" y="132"/>
      <point x="239" y="122"/>
      <point x="261" y="119" type="curve" smooth="yes"/>
      <point x="284" y="115"/>
      <point x="299" y="113"/>
      <point x="317" y="113" type="curve" smooth="yes" name="SP"/>
      <point x="354" y="113"/>
      <point x="386" y="123"/>
      <point x="407" y="144" type="curve" smooth="yes"/>
      <point x="424" y="161"/>
      <point x="431" y="197"/>
      <point x="431" y="250" type="curve" smooth="yes"/>
      <point x="431" y="304"/>
      <point x="424" y="340"/>
      <point x="407" y="357" type="curve" smooth="yes"/>
      <point x="386" y="378"/>
      <point x="354" y="388"/>
      <point x="317" y="388" type="curve" smooth="yes" name="SP"/>
      <point x="299" y="388"/>
      <point x="284" y="386"/>
      <point x="261" y="382" type="curve" smooth="yes"/>
      <point x="239" y="379"/>
      <point x="218" y="369"/>
      <point x="197" y="354" type="curve"/>
      <point x="197" y="363" type="line"/>
      <point x="208" y="475"/>
      <point x="250" y="513"/>
      <point x="348" y="513" type="curve" smooth="yes" name="SP"/>
      <point x="419" y="513"/>
      <point x="468" y="488"/>
      <point x="507" y="449" type="curve" smooth="yes"/>
      <point x="542" y="415"/>
      <point x="555" y="352"/>
      <point x="555" y="250" type="curve" smooth="yes"/>
      <point x="555" y="149"/>
      <point x="542" y="86"/>
      <point x="507" y="52" type="curve" smooth="yes"/>
      <point x="468" y="13"/>
      <point x="419" y="-13"/>
    </contour>
  </outline>
</glyph>
<glyph name="c" format="1">
  <advance width="504"/>
  <unicode hex="0063"/>
  <outline>
    <contour>
      <point x="330" y="306" type="line"/>
      <point x="330" y="445" type="line"/>
      <point x="471" y="473" type="line"/>
      <point x="471" y="306" type="line"/>
    </contour>
    <contour>
      <point x="304" y="-13" type="curve" smooth="yes" name=""/>
      <point x="216" y="-13"/>
      <point x="142" y="9"/>
      <point x="107" y="44" type="curve" smooth="yes" name=""/>
      <point x="70" y="81"/>
      <point x="49" y="154"/>
      <point x="49" y="244" type="curve" smooth="yes"/>
      <point x="49" y="337"/>
      <point x="71" y="412"/>
      <point x="109" y="450" type="curve" smooth="yes" name=""/>
      <point x="151" y="492"/>
      <point x="216" y="514"/>
      <point x="288" y="514" type="curve" smooth="yes" name=""/>
      <point x="349" y="514"/>
      <point x="420" y="497"/>
      <point x="471" y="473" type="curve"/>
      <point x="455" y="336" type="line"/>
      <point x="380" y="375"/>
      <point x="357" y="377"/>
      <point x="299" y="377" type="curve" smooth="yes"/>
      <point x="254" y="377"/>
      <point x="223" y="370"/>
      <point x="207" y="355" type="curve" smooth="yes" name=""/>
      <point x="192" y="340"/>
      <point x="184" y="312"/>
      <point x="184" y="249" type="curve" smooth="yes"/>
      <point x="184" y="198"/>
      <point x="190" y="163"/>
      <point x="204" y="150" type="curve" smooth="yes" name=""/>
      <point x="220" y="135"/>
      <point x="262" y="123"/>
      <point x="314" y="123" type="curve" smooth="yes" name=""/>
      <point x="366" y="123"/>
      <point x="416" y="133"/>
      <point x="470" y="155" type="curve"/>
      <point x="466" y="20" type="line"/>
      <point x="412" y="-3"/>
      <point x="362" y="-13"/>
    </contour>
  </outline>
</glyph>
<glyph name="d" format="1">
  <advance width="585"/>
  <unicode hex="0064"/>
  <outline>
    <contour>
      <point x="235" y="-13" type="curve" smooth="yes" name="SP"/>
      <point x="164" y="-13"/>
      <point x="115" y="13"/>
      <point x="76" y="52" type="curve" smooth="yes"/>
      <point x="41" y="86"/>
      <point x="28" y="149"/>
      <point x="28" y="251" type="curve" smooth="yes"/>
      <point x="28" y="352"/>
      <point x="41" y="415"/>
      <point x="76" y="449" type="curve" smooth="yes"/>
      <point x="115" y="488"/>
      <point x="164" y="513"/>
      <point x="235" y="513" type="curve" smooth="yes" name="SP"/>
      <point x="333" y="513"/>
      <point x="375" y="475"/>
      <point x="386" y="363" type="curve"/>
      <point x="386" y="354" type="line"/>
      <point x="365" y="369"/>
      <point x="344" y="379"/>
      <point x="322" y="382" type="curve" smooth="yes"/>
      <point x="299" y="386"/>
      <point x="284" y="388"/>
      <point x="266" y="388" type="curve" smooth="yes" name="SP"/>
      <point x="229" y="388"/>
      <point x="197" y="378"/>
      <point x="176" y="357" type="curve" smooth="yes"/>
      <point x="159" y="340"/>
      <point x="152" y="304"/>
      <point x="152" y="251" type="curve" smooth="yes"/>
      <point x="152" y="197"/>
      <point x="159" y="161"/>
      <point x="176" y="144" type="curve" smooth="yes"/>
      <point x="197" y="123"/>
      <point x="229" y="113"/>
      <point x="266" y="113" type="curve" smooth="yes" name="SP"/>
      <point x="284" y="113"/>
      <point x="299" y="115"/>
      <point x="322" y="119" type="curve" smooth="yes"/>
      <point x="344" y="122"/>
      <point x="365" y="132"/>
      <point x="386" y="147" type="curve"/>
      <point x="386" y="138" type="line"/>
      <point x="375" y="26"/>
      <point x="333" y="-13"/>
    </contour>
    <contour>
      <point x="385" y="0" type="line"/>
      <point x="382" y="137" type="line"/>
      <point x="382" y="598" type="line"/>
      <point x="410" y="574" type="line"/>
      <point x="314" y="574" type="line"/>
      <point x="314" y="698" type="line"/>
      <point x="519" y="698" type="line"/>
      <point x="519" y="0" type="line"/>
    </contour>
  </outline>
</glyph>
<glyph name="e" format="1">
  <advance width="522"/>
  <unicode hex="0065"/>
  <outline>
    <contour>
      <point x="301" y="-13" type="curve" smooth="yes" name=""/>
      <point x="224" y="-13"/>
      <point x="141" y="12"/>
      <point x="104" y="49" type="curve" smooth="yes" name=""/>
      <point x="71" y="83"/>
      <point x="49" y="159"/>
      <point x="49" y="249" type="curve" smooth="yes"/>
      <point x="49" y="342"/>
      <point x="75" y="423"/>
      <point x="112" y="459" type="curve" smooth="yes" name=""/>
      <point x="145" y="492"/>
      <point x="213" y="517"/>
      <point x="284" y="517" type="curve" smooth="yes" name=""/>
      <point x="366" y="517"/>
      <point x="437" y="494"/>
      <point x="469" y="448" type="curve" smooth="yes" name=""/>
      <point x="501" y="400"/>
      <point x="501" y="305"/>
      <point x="495" y="191" type="curve"/>
      <point x="115" y="191" type="line"/>
      <point x="115" y="303" type="line"/>
      <point x="401" y="303" type="line"/>
      <point x="369" y="248" type="line"/>
      <point x="366" y="337"/>
      <point x="371" y="330"/>
      <point x="365" y="350" type="curve" smooth="yes" name=""/>
      <point x="353" y="377"/>
      <point x="334" y="391"/>
      <point x="281" y="391" type="curve" smooth="yes" name=""/>
      <point x="237" y="391"/>
      <point x="219" y="384"/>
      <point x="204" y="368" type="curve" smooth="yes" name=""/>
      <point x="189" y="354"/>
      <point x="184" y="324"/>
      <point x="184" y="274" type="curve" smooth="yes"/>
      <point x="184" y="230" type="line" smooth="yes"/>
      <point x="184" y="176"/>
      <point x="188" y="159"/>
      <point x="197" y="149" type="curve" smooth="yes" name=""/>
      <point x="216" y="131"/>
      <point x="256" y="116"/>
      <point x="304" y="116" type="curve" smooth="yes" name=""/>
      <point x="364" y="116"/>
      <point x="427" y="124"/>
      <point x="476" y="133" type="curve"/>
      <point x="460" y="3" type="line"/>
      <point x="427" y="-6"/>
      <point x="360" y="-13"/>
    </contour>
  </outline>
</glyph>
<glyph name="f" format="1">
  <advance width="378"/>
  <unicode hex="0066"/>
  <outline>
    <contour>
      <point x="369" y="501" type="line"/>
      <point x="21" y="501" type="line"/>
      <point x="21" y="377" type="line"/>
      <point x="369" y="377" type="line"/>
    </contour>
    <contour>
      <point x="225" y="0" type="line"/>
      <point x="225" y="494" type="line" smooth="yes"/>
      <point x="225" y="534"/>
      <point x="229" y="546"/>
      <point x="242" y="559" type="curve" smooth="yes"/>
      <point x="256" y="573"/>
      <point x="282" y="580"/>
      <point x="318" y="580" type="curve" smooth="yes"/>
      <point x="341" y="580"/>
      <point x="368" y="577"/>
      <point x="393" y="568" type="curve"/>
      <point x="387" y="700" type="line"/>
      <point x="361" y="704"/>
      <point x="335" y="708"/>
      <point x="303" y="708" type="curve" smooth="yes"/>
      <point x="235" y="708"/>
      <point x="176" y="687"/>
      <point x="140" y="651" type="curve" smooth="yes"/>
      <point x="103" y="614"/>
      <point x="89" y="568"/>
      <point x="89" y="490" type="curve" smooth="yes"/>
      <point x="89" y="0" type="line"/>
    </contour>
  </outline>
</glyph>
<glyph name="g" format="1">
  <advance width="596"/>
  <unicode hex="0067"/>
  <outline>
    <contour>
      <point x="252" y="-227" type="curve" smooth="yes"/>
      <point x="189" y="-227"/>
      <point x="126" y="-216"/>
      <point x="83" y="-206" type="curve"/>
      <point x="78" y="-64" type="line"/>
      <point x="135" y="-86"/>
      <point x="200" y="-99"/>
      <point x="271" y="-99" type="curve" smooth="yes"/>
      <point x="323" y="-99"/>
      <point x="354" y="-92"/>
      <point x="369" y="-77" type="curve" smooth="yes"/>
      <point x="380" y="-66"/>
      <point x="386" y="-45"/>
      <point x="386" y="-15" type="curve" smooth="yes"/>
      <point x="386" y="368" type="line"/>
      <point x="389" y="504" type="line"/>
      <point x="523" y="504" type="line"/>
      <point x="523" y="-43" type="line" smooth="yes"/>
      <point x="523" y="-81"/>
      <point x="506" y="-124"/>
      <point x="474" y="-156" type="curve" smooth="yes"/>
      <point x="428" y="-202"/>
      <point x="351" y="-227"/>
    </contour>
    <contour>
      <point x="239" y="-13" type="curve" smooth="yes" name="SP"/>
      <point x="168" y="-13"/>
      <point x="119" y="13"/>
      <point x="80" y="52" type="curve" smooth="yes"/>
      <point x="45" y="87"/>
      <point x="32" y="149"/>
      <point x="32" y="251" type="curve" smooth="yes"/>
      <point x="32" y="352"/>
      <point x="45" y="415"/>
      <point x="80" y="449" type="curve" smooth="yes"/>
      <point x="119" y="488"/>
      <point x="168" y="513"/>
      <point x="239" y="513" type="curve" smooth="yes" name="SP"/>
      <point x="337" y="513"/>
      <point x="379" y="475"/>
      <point x="390" y="363" type="curve"/>
      <point x="390" y="354" type="line"/>
      <point x="369" y="369"/>
      <point x="348" y="379"/>
      <point x="326" y="382" type="curve" smooth="yes"/>
      <point x="303" y="386"/>
      <point x="288" y="388"/>
      <point x="270" y="388" type="curve" smooth="yes" name="SP"/>
      <point x="233" y="388"/>
      <point x="201" y="378"/>
      <point x="180" y="357" type="curve" smooth="yes"/>
      <point x="163" y="340"/>
      <point x="156" y="304"/>
      <point x="156" y="251" type="curve" smooth="yes"/>
      <point x="156" y="197"/>
      <point x="163" y="161"/>
      <point x="180" y="144" type="curve" smooth="yes"/>
      <point x="201" y="123"/>
      <point x="233" y="113"/>
      <point x="270" y="113" type="curve" smooth="yes" name="SP"/>
      <point x="288" y="113"/>
      <point x="303" y="116"/>
      <point x="326" y="120" type="curve" smooth="yes"/>
      <point x="348" y="123"/>
      <point x="369" y="132"/>
      <point x="390" y="148" type="curve"/>
      <point x="390" y="138" type="line"/>
      <point x="379" y="26"/>
      <point x="337" y="-13"/>
    </contour>
  </outline>
</glyph>
<glyph name="h" format="1">
  <advance width="590"/>
  <unicode hex="0068"/>
  <outline>
    <contour>
      <point x="64" y="0" type="line"/>
      <point x="201" y="0" type="line"/>
      <point x="201" y="698" type="line"/>
      <point x="-5" y="698" type="line"/>
      <point x="-5" y="574" type="line"/>
      <point x="92" y="574" type="line"/>
      <point x="64" y="598" type="line"/>
    </contour>
    <contour>
      <point x="515" y="0" type="line"/>
      <point x="515" y="324" type="line" smooth="yes"/>
      <point x="515" y="404"/>
      <point x="505" y="446"/>
      <point x="480" y="470" type="curve" smooth="yes"/>
      <point x="455" y="497"/>
      <point x="403" y="513"/>
      <point x="351" y="513" type="curve" smooth="yes" name="SP"/>
      <point x="250" y="513"/>
      <point x="207" y="471"/>
      <point x="197" y="364" type="curve"/>
      <point x="197" y="355" type="line"/>
      <point x="213" y="367"/>
      <point x="225" y="369"/>
      <point x="247" y="374" type="curve" smooth="yes"/>
      <point x="266" y="378"/>
      <point x="279" y="377"/>
      <point x="301" y="377" type="curve" smooth="yes" name="SP"/>
      <point x="336" y="377"/>
      <point x="353" y="373"/>
      <point x="364" y="361" type="curve" smooth="yes"/>
      <point x="374" y="352"/>
      <point x="378" y="342"/>
      <point x="378" y="325" type="curve" smooth="yes"/>
      <point x="378" y="0" type="line"/>
    </contour>
  </outline>
</glyph>
<glyph name="i" format="1">
  <advance width="318"/>
  <unicode hex="0069"/>
  <outline>
    <contour>
      <point x="238" y="0" type="line"/>
      <point x="238" y="504" type="line"/>
      <point x="39" y="504" type="line"/>
      <point x="39" y="380" type="line"/>
      <point x="129" y="380" type="line"/>
      <point x="101" y="404" type="line"/>
      <point x="101" y="0" type="line"/>
    </contour>
    <contour>
      <point x="68" y="650" type="curve" smooth="yes"/>
      <point x="68" y="583"/>
      <point x="92" y="560"/>
      <point x="160" y="560" type="curve" smooth="yes" name=""/>
      <point x="230" y="560"/>
      <point x="253" y="583"/>
      <point x="253" y="650" type="curve" smooth="yes"/>
      <point x="253" y="717"/>
      <point x="230" y="741"/>
      <point x="160" y="741" type="curve" smooth="yes" name=""/>
      <point x="92" y="741"/>
      <point x="68" y="717"/>
    </contour>
  </outline>
</glyph>
<glyph name="m" format="1">
  <advance width="949"/>
  <unicode hex="006D"/>
  <outline>
    <contour>
      <point x="250" y="0" type="line"/>
      <point x="250" y="367" type="line"/>
      <point x="247" y="368" type="line"/>
      <point x="247" y="501" type="line"/>
      <point x="45" y="501" type="line"/>
      <point x="45" y="377" type="line"/>
      <point x="141" y="377" type="line"/>
      <point x="113" y="382" type="line"/>
      <point x="113" y="0" type="line"/>
    </contour>
    <contour>
      <point x="564" y="0" type="line"/>
      <point x="564" y="365" type="line"/>
      <point x="523" y="365" type="line"/>
      <point x="564" y="328" type="line"/>
      <point x="557" y="420"/>
      <point x="549" y="451"/>
      <point x="528" y="471" type="curve" smooth="yes"/>
      <point x="503" y="497"/>
      <point x="451" y="513"/>
      <point x="400" y="513" type="curve" smooth="yes" name="SP"/>
      <point x="299" y="513"/>
      <point x="256" y="471"/>
      <point x="246" y="364" type="curve"/>
      <point x="246" y="355" type="line"/>
      <point x="262" y="367"/>
      <point x="274" y="369"/>
      <point x="296" y="374" type="curve" smooth="yes"/>
      <point x="315" y="378"/>
      <point x="328" y="377"/>
      <point x="351" y="377" type="curve" smooth="yes" name="SP"/>
      <point x="385" y="377"/>
      <point x="402" y="373"/>
      <point x="414" y="361" type="curve" smooth="yes"/>
      <point x="423" y="352"/>
      <point x="427" y="342"/>
      <point x="427" y="325" type="curve" smooth="yes"/>
      <point x="427" y="0" type="line"/>
    </contour>
    <contour>
      <point x="878" y="0" type="line"/>
      <point x="878" y="324" type="line" smooth="yes"/>
      <point x="878" y="403"/>
      <point x="868" y="446"/>
      <point x="844" y="470" type="curve" smooth="yes"/>
      <point x="818" y="497"/>
      <point x="767" y="513"/>
      <point x="714" y="513" type="curve" smooth="yes" name="SP"/>
      <point x="613" y="513"/>
      <point x="567" y="471"/>
      <point x="558" y="364" type="curve"/>
      <point x="560" y="355" type="line"/>
      <point x="576" y="367"/>
      <point x="588" y="369"/>
      <point x="610" y="374" type="curve" smooth="yes"/>
      <point x="629" y="378"/>
      <point x="642" y="377"/>
      <point x="665" y="377" type="curve" smooth="yes" name="SP"/>
      <point x="699" y="377"/>
      <point x="716" y="373"/>
      <point x="728" y="361" type="curve" smooth="yes"/>
      <point x="737" y="352"/>
      <point x="741" y="342"/>
      <point x="741" y="325" type="curve" smooth="yes"/>
      <point x="741" y="0" type="line"/>
    </contour>
  </outline>
</glyph>
<glyph name="n" format="1">
  <advance width="635"/>
  <unicode hex="006E"/>
  <outline>
    <contour>
      <point x="243" y="0" type="line"/>
      <point x="107" y="0" type="line"/>
      <point x="107" y="382" type="line"/>
      <point x="134" y="365" type="line"/>
      <point x="38" y="365" type="line"/>
      <point x="38" y="501" type="line"/>
      <point x="241" y="501" type="line"/>
      <point x="241" y="346" type="line"/>
      <point x="243" y="345" type="line"/>
    </contour>
    <contour>
      <point x="563" y="0" type="line"/>
      <point x="427" y="0" type="line"/>
      <point x="427" y="314" type="line" smooth="yes"/>
      <point x="427" y="332"/>
      <point x="423" y="344"/>
      <point x="413" y="353" type="curve" smooth="yes"/>
      <point x="401" y="365"/>
      <point x="380" y="370"/>
      <point x="344" y="370" type="curve" smooth="yes" name="SP"/>
      <point x="322" y="370"/>
      <point x="305" y="369"/>
      <point x="286" y="363" type="curve" smooth="yes"/>
      <point x="266" y="357"/>
      <point x="253" y="350"/>
      <point x="241" y="337" type="curve"/>
      <point x="241" y="342" type="line"/>
      <point x="250" y="465"/>
      <point x="295" y="513"/>
      <point x="402" y="513" type="curve" smooth="yes" name="SP"/>
      <point x="456" y="513"/>
      <point x="498" y="500"/>
      <point x="524" y="474" type="curve" smooth="yes"/>
      <point x="551" y="446"/>
      <point x="563" y="401"/>
      <point x="563" y="324" type="curve" smooth="yes"/>
    </contour>
  </outline>
</glyph>
<glyph name="o" format="1">
  <advance width="588"/>
  <unicode hex="006F"/>
  <outline>
    <contour>
      <point x="294" y="114" type="curve" smooth="yes" name=""/>
      <point x="334" y="114"/>
      <point x="362" y="121"/>
      <point x="379" y="138" type="curve" smooth="yes"/>
      <point x="400" y="159"/>
      <point x="409" y="194"/>
      <point x="409" y="251" type="curve" smooth="yes"/>
      <point x="409" y="307"/>
      <point x="400" y="341"/>
      <point x="379" y="363" type="curve" smooth="yes"/>
      <point x="362" y="379"/>
      <point x="335" y="387"/>
      <point x="294" y="387" type="curve" smooth="yes" name=""/>
      <point x="253" y="387"/>
      <point x="226" y="379"/>
      <point x="210" y="363" type="curve" smooth="yes"/>
      <point x="188" y="341"/>
      <point x="180" y="307"/>
      <point x="180" y="251" type="curve" smooth="yes"/>
      <point x="180" y="194"/>
      <point x="188" y="159"/>
      <point x="210" y="138" type="curve" smooth="yes"/>
      <point x="226" y="121"/>
      <point x="254" y="114"/>
    </contour>
    <contour>
      <point x="294" y="-13" type="curve" smooth="yes" name=""/>
      <point x="219" y="-13"/>
      <point x="163" y="7"/>
      <point x="124" y="47" type="curve" smooth="yes"/>
      <point x="79" y="92"/>
      <point x="55" y="161"/>
      <point x="55" y="251" type="curve" smooth="yes"/>
      <point x="55" y="340"/>
      <point x="79" y="409"/>
      <point x="124" y="454" type="curve" smooth="yes"/>
      <point x="163" y="494"/>
      <point x="219" y="513"/>
      <point x="294" y="513" type="curve" smooth="yes" name=""/>
      <point x="369" y="513"/>
      <point x="425" y="494"/>
      <point x="465" y="454" type="curve" smooth="yes"/>
      <point x="510" y="409"/>
      <point x="533" y="340"/>
      <point x="533" y="251" type="curve" smooth="yes"/>
      <point x="533" y="161"/>
      <point x="510" y="92"/>
      <point x="465" y="47" type="curve" smooth="yes"/>
      <point x="425" y="7"/>
      <point x="369" y="-13"/>
    </contour>
  </outline>
</glyph>
<glyph name="p" format="1">
  <advance width="591"/>
  <unicode hex="0070"/>
  <outline>
    <contour>
      <point x="67" y="-214" type="line"/>
      <point x="203" y="-214" type="line"/>
      <point x="203" y="384" type="line"/>
      <point x="201" y="501" type="line"/>
      <point x="67" y="501" type="line"/>
    </contour>
    <contour>
      <point x="351" y="-13" type="curve" smooth="yes" name="SP"/>
      <point x="422" y="-13"/>
      <point x="471" y="13"/>
      <point x="510" y="52" type="curve" smooth="yes"/>
      <point x="545" y="86"/>
      <point x="558" y="149"/>
      <point x="558" y="250" type="curve" smooth="yes"/>
      <point x="558" y="352"/>
      <point x="545" y="415"/>
      <point x="510" y="449" type="curve" smooth="yes"/>
      <point x="471" y="488"/>
      <point x="422" y="513"/>
      <point x="351" y="513" type="curve" smooth="yes" name="SP"/>
      <point x="253" y="513"/>
      <point x="211" y="475"/>
      <point x="200" y="363" type="curve"/>
      <point x="199" y="354" type="line"/>
      <point x="221" y="369"/>
      <point x="241" y="379"/>
      <point x="263" y="382" type="curve" smooth="yes"/>
      <point x="287" y="386"/>
      <point x="302" y="388"/>
      <point x="320" y="388" type="curve" smooth="yes" name="SP"/>
      <point x="357" y="388"/>
      <point x="388" y="378"/>
      <point x="410" y="357" type="curve" smooth="yes"/>
      <point x="427" y="340"/>
      <point x="433" y="304"/>
      <point x="433" y="250" type="curve" smooth="yes"/>
      <point x="433" y="197"/>
      <point x="427" y="161"/>
      <point x="410" y="144" type="curve" smooth="yes"/>
      <point x="388" y="123"/>
      <point x="357" y="113"/>
      <point x="320" y="113" type="curve" smooth="yes" name="SP"/>
      <point x="302" y="113"/>
      <point x="287" y="115"/>
      <point x="263" y="119" type="curve" smooth="yes"/>
      <point x="241" y="122"/>
      <point x="221" y="132"/>
      <point x="199" y="147" type="curve"/>
      <point x="200" y="138" type="line"/>
      <point x="211" y="26"/>
      <point x="253" y="-13"/>
    </contour>
  </outline>
</glyph>
<glyph name="q" format="1">
  <advance width="589"/>
  <unicode hex="0071"/>
  <outline>
    <contour>
      <point x="386" y="-214" type="line"/>
      <point x="386" y="364" type="line"/>
      <point x="389" y="501" type="line"/>
      <point x="523" y="501" type="line"/>
      <point x="523" y="-214" type="line"/>
    </contour>
    <contour>
      <point x="239" y="-13" type="curve" smooth="yes" name="SP"/>
      <point x="168" y="-13"/>
      <point x="119" y="13"/>
      <point x="80" y="52" type="curve" smooth="yes"/>
      <point x="45" y="86"/>
      <point x="32" y="149"/>
      <point x="32" y="251" type="curve" smooth="yes"/>
      <point x="32" y="352"/>
      <point x="45" y="415"/>
      <point x="80" y="449" type="curve" smooth="yes"/>
      <point x="119" y="488"/>
      <point x="168" y="513"/>
      <point x="239" y="513" type="curve" smooth="yes" name="SP"/>
      <point x="337" y="513"/>
      <point x="379" y="475"/>
      <point x="390" y="363" type="curve"/>
      <point x="390" y="354" type="line"/>
      <point x="369" y="369"/>
      <point x="348" y="379"/>
      <point x="326" y="382" type="curve" smooth="yes"/>
      <point x="303" y="386"/>
      <point x="288" y="388"/>
      <point x="270" y="388" type="curve" smooth="yes" name="SP"/>
      <point x="233" y="388"/>
      <point x="201" y="378"/>
      <point x="180" y="357" type="curve" smooth="yes"/>
      <point x="163" y="340"/>
      <point x="156" y="304"/>
      <point x="156" y="251" type="curve" smooth="yes"/>
      <point x="156" y="197"/>
      <point x="163" y="161"/>
      <point x="180" y="144" type="curve" smooth="yes"/>
      <point x="201" y="123"/>
      <point x="233" y="113"/>
      <point x="270" y="113" type="curve" smooth="yes" name="SP"/>
      <point x="288" y="113"/>
      <point x="303" y="115"/>
      <point x="326" y="119" type="curve" smooth="yes"/>
      <point x="348" y="122"/>
      <point x="369" y="132"/>
      <point x="390" y="147" type="curve"/>
      <point x="390" y="138" type="line"/>
      <point x="379" y="26"/>
      <point x="337" y="-13"/>
    </contour>
  </outline>
</glyph>
<glyph name="r" format="1">
  <advance width="383"/>
  <unicode hex="0072"/>
  <outline>
    <contour>
      <point x="399" y="369" type="line" name="SP"/>
      <point x="348" y="369"/>
      <point x="310" y="365"/>
      <point x="282" y="355" type="curve" smooth="yes"/>
      <point x="266" y="351"/>
      <point x="253" y="346"/>
      <point x="227" y="330" type="curve"/>
      <point x="227" y="339" type="line"/>
      <point x="252" y="480"/>
      <point x="286" y="517"/>
      <point x="403" y="517" type="curve" name="SP"/>
    </contour>
    <contour>
      <point x="94" y="0" type="line"/>
      <point x="94" y="385" type="line"/>
      <point x="121" y="380" type="line"/>
      <point x="25" y="380" type="line"/>
      <point x="25" y="504" type="line"/>
      <point x="226" y="504" type="line"/>
      <point x="229" y="334" type="line"/>
      <point x="230" y="335" type="line"/>
      <point x="230" y="0" type="line"/>
    </contour>
  </outline>
</glyph>
<glyph name="s" format="1">
  <advance width="501"/>
  <unicode hex="0073"/>
  <outline>
    <contour>
      <point x="232" y="-13" type="curve" smooth="yes"/>
      <point x="383" y="-13"/>
      <point x="463" y="44"/>
      <point x="463" y="159" type="curve" smooth="yes"/>
      <point x="463" y="228"/>
      <point x="421" y="261"/>
      <point x="304" y="287" type="curve" smooth="yes"/>
      <point x="239" y="302" type="line" smooth="yes"/>
      <point x="193" y="312"/>
      <point x="177" y="326"/>
      <point x="177" y="354" type="curve" smooth="yes"/>
      <point x="177" y="375"/>
      <point x="180" y="385"/>
      <point x="192" y="391" type="curve" smooth="yes"/>
      <point x="201" y="395"/>
      <point x="221" y="396"/>
      <point x="253" y="396" type="curve" smooth="yes"/>
      <point x="324" y="396"/>
      <point x="357" y="386"/>
      <point x="437" y="343" type="curve"/>
      <point x="450" y="478" type="line"/>
      <point x="391" y="501"/>
      <point x="309" y="517"/>
      <point x="245" y="517" type="curve" smooth="yes"/>
      <point x="109" y="517"/>
      <point x="45" y="464"/>
      <point x="45" y="353" type="curve" smooth="yes"/>
      <point x="45" y="269"/>
      <point x="88" y="227"/>
      <point x="201" y="201" type="curve" smooth="yes"/>
      <point x="265" y="186" type="line" smooth="yes"/>
      <point x="331" y="171"/>
      <point x="331" y="172"/>
      <point x="331" y="151" type="curve" smooth="yes"/>
      <point x="331" y="124"/>
      <point x="308" y="113"/>
      <point x="233" y="113" type="curve" smooth="yes"/>
      <point x="164" y="113"/>
      <point x="105" y="126"/>
      <point x="59" y="152" type="curve"/>
      <point x="51" y="16" type="line"/>
      <point x="117" y="-4"/>
      <point x="171" y="-13"/>
    </contour>
    <contour>
      <point x="309" y="321" type="line"/>
      <point x="450" y="321" type="line"/>
      <point x="450" y="478" type="line"/>
      <point x="309" y="480" type="line"/>
    </contour>
  </outline>
</glyph>
<glyph name="t" format="1">
  <advance width="427"/>
  <unicode hex="0074"/>
  <outline>
    <contour>
      <point x="310" y="-13" type="curve" smooth="yes"/>
      <point x="245" y="-13"/>
      <point x="187" y="9"/>
      <point x="151" y="45" type="curve" smooth="yes"/>
      <point x="115" y="80"/>
      <point x="101" y="130"/>
      <point x="101" y="208" type="curve" smooth="yes"/>
      <point x="98" y="583" type="line"/>
      <point x="233" y="620" type="line"/>
      <point x="237" y="207" type="line" smooth="yes"/>
      <point x="237" y="162"/>
      <point x="241" y="149"/>
      <point x="253" y="136" type="curve" smooth="yes"/>
      <point x="265" y="124"/>
      <point x="286" y="118"/>
      <point x="314" y="118" type="curve" smooth="yes"/>
      <point x="337" y="118"/>
      <point x="361" y="121"/>
      <point x="400" y="129" type="curve"/>
      <point x="399" y="-5" type="line"/>
      <point x="371" y="-10"/>
      <point x="342" y="-13"/>
    </contour>
    <contour>
      <point x="29" y="377" type="line"/>
      <point x="29" y="501" type="line"/>
      <point x="377" y="501" type="line"/>
      <point x="377" y="377" type="line"/>
    </contour>
  </outline>
</glyph>
<glyph name="u" format="1">
  <advance width="635"/>
  <unicode hex="0075"/>
  <outline>
    <contour>
      <point x="392" y="501" type="line"/>
      <point x="392" y="134" type="line"/>
      <point x="395" y="133" type="line"/>
      <point x="395" y="0" type="line"/>
      <point x="598" y="0" type="line"/>
      <point x="598" y="124" type="line"/>
      <point x="501" y="124" type="line"/>
      <point x="529" y="119" type="line"/>
      <point x="529" y="501" type="line"/>
    </contour>
    <contour>
      <point x="78" y="501" type="line"/>
      <point x="78" y="177" type="line" smooth="yes"/>
      <point x="78" y="96"/>
      <point x="89" y="53"/>
      <point x="115" y="28" type="curve" smooth="yes"/>
      <point x="140" y="3"/>
      <point x="192" y="-13"/>
      <point x="242" y="-13" type="curve" smooth="yes" name="SP"/>
      <point x="343" y="-13"/>
      <point x="386" y="30"/>
      <point x="396" y="137" type="curve"/>
      <point x="396" y="146" type="line"/>
      <point x="380" y="134"/>
      <point x="368" y="132"/>
      <point x="346" y="127" type="curve" smooth="yes"/>
      <point x="327" y="123"/>
      <point x="314" y="124"/>
      <point x="292" y="124" type="curve" smooth="yes" name="SP"/>
      <point x="257" y="124"/>
      <point x="240" y="128"/>
      <point x="229" y="140" type="curve" smooth="yes"/>
      <point x="219" y="149"/>
      <point x="215" y="159"/>
      <point x="215" y="176" type="curve" smooth="yes"/>
      <point x="215" y="501" type="line"/>
    </contour>
  </outline>
</glyph>
<glyph name="v" format="1">
  <advance width="513"/>
  <unicode hex="0076"/>
  <outline>
    <contour>
      <point x="160" y="0" type="line"/>
      <point x="291" y="0" type="line"/>
      <point x="210" y="230" type="line"/>
      <point x="124" y="501" type="line"/>
      <point x="-14" y="501" type="line"/>
    </contour>
    <contour>
      <point x="354" y="0" type="line"/>
      <point x="527" y="501" type="line"/>
      <point x="395" y="501" type="line"/>
      <point x="309" y="230" type="line"/>
      <point x="227" y="0" type="line"/>
    </contour>
  </outline>
</glyph>
<glyph name="a.001" format="1">
  <advance width="590"/>
  <outline>
    <contour>
      <point x="238" y="-12" type="curve" smooth="yes" name="SP"/>
      <point x="171" y="-12"/>
      <point x="121" y="12"/>
      <point x="82" y="51" type="curve" smooth="yes"/>
      <point x="47" y="86"/>
      <point x="33" y="148"/>
      <point x="33" y="251" type="curve" smooth="yes"/>
      <point x="33" y="354"/>
      <point x="47" y="416"/>
      <point x="82" y="450" type="curve" smooth="yes"/>
      <point x="122" y="490"/>
      <point x="171" y="514"/>
      <point x="238" y="514" type="curve" smooth="yes" name="SP"/>
      <point x="340" y="514"/>
      <point x="382" y="475"/>
      <point x="393" y="364" type="curve"/>
      <point x="394" y="355" type="line"/>
      <point x="373" y="370"/>
      <point x="353" y="377"/>
      <point x="331" y="380" type="curve" smooth="yes"/>
      <point x="310" y="383"/>
      <point x="294" y="385"/>
      <point x="276" y="385" type="curve" smooth="yes" name="SP"/>
      <point x="237" y="385"/>
      <point x="207" y="377"/>
      <point x="185" y="356" type="curve" smooth="yes"/>
      <point x="168" y="338"/>
      <point x="161" y="305"/>
      <point x="161" y="251" type="curve" smooth="yes"/>
      <point x="161" y="197"/>
      <point x="168" y="163"/>
      <point x="185" y="146" type="curve" smooth="yes"/>
      <point x="206" y="124"/>
      <point x="237" y="116"/>
      <point x="276" y="116" type="curve" smooth="yes" name="SP"/>
      <point x="294" y="116"/>
      <point x="310" y="118"/>
      <point x="331" y="121" type="curve" smooth="yes"/>
      <point x="353" y="125"/>
      <point x="373" y="132"/>
      <point x="394" y="148" type="curve"/>
      <point x="393" y="138" type="line"/>
      <point x="382" y="27"/>
      <point x="340" y="-12"/>
    </contour>
    <contour>
      <point x="527" y="0" type="line"/>
      <point x="392" y="0" type="line"/>
      <point x="390" y="136" type="line"/>
      <point x="390" y="375" type="line"/>
      <point x="392" y="504" type="line"/>
      <point x="527" y="504" type="line"/>
    </contour>
  </outline>
</glyph>
